<svg width="131" height="29" viewBox="0 0 131 29" fill="none" xmlns="http://www.w3.org/2000/svg">
<path fill-rule="evenodd" clip-rule="evenodd" d="M5.4375 7.25V21.75H0V29H5.4375H12.6875V21.75V7.25H16.3125V29H23.5625V7.25H27.1875V29H34.4375V7.25V0H27.1875H23.5625H16.3125H12.6875H5.4375V7.25ZM125.062 0H96.0625V7.25V29H103.312V7.25H106.938V29H114.188V7.25H117.812V21.75V29H125.062H130.5V21.75H125.062V7.25V0ZM38.0625 29V0H45.3125H56.1875H63.4375V7.25V10.875L63.4375 18.125H56.1875H45.3125V21.75H63.4375V29H45.3125H38.0625ZM56.1875 7.25L45.3125 7.25V10.875H56.1875V7.25ZM67.0625 0V29H74.3125H92.4375V21.75H74.3125V18.125H85.1875H92.4375V10.875V7.25V0H85.1875H74.3125H67.0625ZM74.3125 7.25L85.1875 7.25V10.875H74.3125V7.25Z" fill="white"/>
</svg>
